<?xml version="1.0" encoding="utf-8"?>
<!-- Generator: Adobe Illustrator 25.4.1, SVG Export Plug-In . SVG Version: 6.00 Build 0)  -->
<svg version="1.1" id="Calque_1" xmlns="http://www.w3.org/2000/svg" xmlns:xlink="http://www.w3.org/1999/xlink" x="0px" y="0px"
	 viewBox="0 0 35 35" style="enable-background:new 0 0 35 35;" xml:space="preserve">
<g>
	<path d="M23.9,28c4.2-9.2,1.8-17.9,0-21.2l-1.1,0.6c1.7,3,4,11.4,0,20.1L23.9,28z"/>
	<path d="M11.1,6.8C6.9,16,9.4,24.7,11.1,28l1.1-0.6c-1.7-3-4-11.4,0-20.1L11.1,6.8z"/>
	<path d="M29.9,25.3c-11.1-7.3-21.3-3-25.3,0l0.8,1.1c3.6-2.8,13.2-6.9,23.7,0L29.9,25.3z"/>
	<path d="M4.6,9.7C15.8,17.8,26,13,30,9.7l-0.9-1c-3.6,3.1-13.2,7.6-23.6,0L4.6,9.7z"/>
	<path d="M18.1,27.9h-1.4V7.1h1.4V27.9z"/>
	<path d="M11.4,27.3c-5.4,0-9.8-4.4-9.8-9.8c0-5.4,4.4-9.8,9.8-9.8h12.2c5.4,0,9.8,4.4,9.8,9.8c0,5.4-4.4,9.8-9.8,9.8H11.4z
		 M0.3,17.5c0,6.1,5,11.1,11.1,11.1h12.2c6.1,0,11.1-5,11.1-11.1s-5-11.1-11.1-11.1H11.4C5.3,6.4,0.3,11.4,0.3,17.5z"/>
	<path d="M33.8,18.2H1.1v-1.4h32.7V18.2z"/>
</g>
</svg>
